<svg version="1.1" id="Layer_1" xmlns="http://www.w3.org/2000/svg" xmlns:xlink="http://www.w3.org/1999/xlink" x="0px" y="0px"
	 viewBox="0 0 710.68 173.55" style="enable-background:new 0 0 710.68 173.55;" xml:space="preserve">
	<style type="text/css">
		.st0{fill:#FFFFFF;}
		.st1{fill:#8FC640;}
		.st2{fill:#019547;}
		.st3{fill:#E2EEF2;}
		.st4{fill:#F9FCF9;}
		.st5{fill:#127AC0;}
		.st6{fill:#454546;}
		.st7{fill:#36B464;}
		.st8{fill:#E9F4E7;}
		.st9{fill:#139B7D;}
		.st10{fill:#0A8083;}
		.st11{fill:#146576;}
		.st12{fill:#2F4858;}
		.st13{fill:#C7E9F4;}
		.st14{fill:#145162;}
		.st15{fill:#F26836;}
		.st16{fill:#44B653;}
		.st17{fill:#18AC6A;}
		.st18{fill:#139A7F;}
		.st19{fill:#0E868E;}
		.st20{fill:#147397;}
		.st21{fill:#434B3B;}
		.st22{fill:#A7AF9D;}
		.st23{fill:#41C6EE;}
		.st24{fill:#1C9BC3;}
		.st25{fill:#748855;}
		.st26{fill:#E8F1D0;}
		.st27{fill:#43808D;}
		.st28{fill:#EEEBDF;}
		.st29{fill:#8A7F50;}
		.st30{fill:#FECF92;}
		.st31{fill:#EE985F;}
		.st32{fill:#B1662C;}
		.st33{fill:#87986B;}
		.st34{fill:#F6FAED;}
		.st35{fill:#40C7F1;}
		.st36{fill:#1A9BCA;}
		.st37{fill:#40A5DC;}
		.st38{fill:#F0563D;}
		.st39{fill:#95B0B6;}
		.st40{fill:#CEC945;}
		.st41{fill:#FFCA68;}
		.st42{fill:#42A1DA;}
		.st43{fill:#EC2E90;}
		.st44{fill:#3A4D23;}
		.st45{fill:#81CDBB;}
		.st46{fill:#A69A77;}
		.st47{fill:#736933;}
		.st48{fill:#3D392A;}
		.st49{fill:#F8FBF2;}
		.st50{fill:#18A14A;}
		.st51{fill:#09A8DA;}
		.st52{fill:#225329;}
		.st53{fill:#136A7B;}
		.st54{fill:#53BACC;}
		.st55{fill:#62A043;}
		.st56{fill:#39783A;}
		.st57{fill:#225229;}
		.st58{fill:#1B2E1A;}
		.st59{fill:#265E2F;}
		.st60{fill:#7AB642;}
		.st61{fill:#307037;}
		.st62{fill:#463F21;}
	</style>
<rect x="1.53" y="1.8" class="st1" width="161.25" height="169.38"/>
	<g>
		<path class="st1" d="M187.87,85.54l6.91-15.53c6.59,4.36,15.95,7.34,24.56,7.34c8.72,0,12.12-2.45,12.12-6.06
			c0-11.8-42.32-3.19-42.32-30.84c0-13.29,10.85-24.14,32.96-24.14c9.68,0,19.67,2.23,27.01,6.49l-6.49,15.63
			c-7.12-3.83-14.14-5.74-20.63-5.74c-8.83,0-12.02,2.98-12.02,6.7c0,11.38,42.22,2.87,42.22,30.31c0,12.97-10.85,24.03-32.97,24.03
			C207.01,93.73,194.89,90.43,187.87,85.54z"/>
		<path class="st1" d="M283.05,17.8h21.06v74.44h-21.06V17.8z"/>
		<path class="st1" d="M407.57,92.24l-0.21-39.45L388.22,84.9h-9.36l-19.04-31.05v38.39h-19.46V17.8h17.33l26.16,42.96l25.52-42.96
			h17.33l0.21,74.44H407.57z"/>
		<path class="st1" d="M530.19,45.35c0,16.91-12.76,27.44-33.07,27.44h-12.97v19.46h-21.06V17.8h34.03
			C517.42,17.8,530.19,28.33,530.19,45.35z M508.92,45.35c0-6.91-4.36-10.95-13.08-10.95h-11.7v21.8h11.7
			C504.56,56.19,508.92,52.15,508.92,45.35z"/>
		<path class="st1" d="M562.73,17.8h21.06v57.74h35.52v16.7h-56.57V17.8z"/>
		<path class="st1" d="M708.63,75.97v16.27h-59.76V17.8h58.38v16.27h-37.54v12.55h33.07v15.74h-33.07v13.61H708.63z"/>
	</g>
	<g>
		<path class="st2" d="M195.92,116.8v18.02h22.48v2.77h-22.48v18.62h-3.07v-42.18h28.2v2.77H195.92z"/>
		<path class="st2" d="M238.88,135.12c0-12.23,9.34-21.39,21.93-21.39c12.53,0,21.93,9.1,21.93,21.39c0,12.29-9.4,21.39-21.93,21.39
			C248.22,156.51,238.88,147.35,238.88,135.12z M279.62,135.12c0-10.67-8.07-18.56-18.8-18.56c-10.79,0-18.86,7.89-18.86,18.56
			c0,10.67,8.07,18.56,18.86,18.56C271.54,153.68,279.62,145.79,279.62,135.12z"/>
		<path class="st2" d="M334.76,156.21l-10.06-14.1c-1.33,0.18-2.65,0.3-4.1,0.3h-12.05v13.8h-3.07v-42.18h15.12
			c10.61,0,16.99,5.3,16.99,14.22c0,6.69-3.62,11.33-9.88,13.2l10.54,14.76H334.76z M320.6,139.7c9.04,0,13.86-4.22,13.86-11.45
			c0-7.29-4.82-11.45-13.86-11.45h-12.05v22.9H320.6z"/>
		<path class="st2" d="M400.81,156.21l-0.06-36.09l-17.66,30.49h-1.51l-17.66-30.37v35.97h-3.01v-42.18h2.59l18.86,32.6l18.86-32.6
			h2.53l0.06,42.18H400.81z"/>
		<path class="st2" d="M456.67,144.34h-24.46l-5.36,11.87h-3.31l19.4-42.18h3.07l19.4,42.18h-3.31L456.67,144.34z M455.53,141.75
			l-11.09-24.34l-11.03,24.34H455.53z"/>
		<path class="st2" d="M489.28,116.8h-15.18v-2.77h33.44v2.77h-15.18v39.41h-3.07V116.8z"/>
		<path class="st2" d="M527.12,114.03h3.07v42.18h-3.07V114.03z"/>
		<path class="st2" d="M552.92,135.12c0-12.23,9.34-21.39,21.93-21.39c12.53,0,21.93,9.1,21.93,21.39c0,12.29-9.4,21.39-21.93,21.39
			C562.26,156.51,552.92,147.35,552.92,135.12z M593.65,135.12c0-10.67-8.07-18.56-18.8-18.56c-10.79,0-18.86,7.89-18.86,18.56
			c0,10.67,8.07,18.56,18.86,18.56C585.57,153.68,593.65,145.79,593.65,135.12z"/>
		<path class="st2" d="M653.85,114.03v42.18h-2.53l-28.74-36.64v36.64h-3.07v-42.18h2.59l28.68,36.64v-36.64H653.85z"/>
		<path class="st2" d="M676.28,150.79l1.39-2.29c2.89,3.01,8.25,5.3,13.92,5.3c8.44,0,12.17-3.68,12.17-8.25
			c0-12.65-26.33-5.06-26.33-20.61c0-5.96,4.58-11.21,14.94-11.21c4.64,0,9.46,1.45,12.71,3.8l-1.14,2.47
			c-3.5-2.41-7.77-3.56-11.57-3.56c-8.2,0-11.87,3.8-11.87,8.44c0,12.65,26.33,5.18,26.33,20.49c0,5.96-4.76,11.15-15.18,11.15
			C685.37,156.51,679.35,154.16,676.28,150.79z"/>
	</g>
	<rect x="93.71" y="68.5" transform="matrix(0.7071 -0.7071 0.7071 0.7071 -20.7303 97.1263)" class="st0" width="26.33" height="10.17"/>
	<rect x="56.09" y="106.13" transform="matrix(0.7071 -0.7071 0.7071 0.7071 -58.3589 81.5449)" class="st0" width="26.33" height="10.17"/>
	<rect x="81.89" y="56.68" transform="matrix(0.7071 -0.7071 0.7071 0.7071 -15.8323 85.303)" class="st0" width="26.33" height="10.17"/>
	<rect x="44.26" y="94.31" transform="matrix(0.707 -0.7072 0.7072 0.707 -53.4631 69.7273)" class="st0" width="26.33" height="10.17"/>
	<rect x="52.34" y="60.42" transform="matrix(0.7071 -0.7071 0.7071 0.7071 -35.2147 62.1623)" class="st0" width="10.17" height="26.33"/>
	<rect x="64.16" y="48.6" transform="matrix(0.7072 -0.707 0.707 0.7072 -23.3909 67.0469)" class="st0" width="10.17" height="26.33"/>
	<rect x="101.79" y="86.23" transform="matrix(0.7071 -0.7071 0.7071 0.7071 -38.9763 104.6786)" class="st0" width="10.17" height="26.32"/>
	<rect x="89.97" y="98.05" transform="matrix(0.7071 -0.7071 0.7071 0.7071 -50.7996 99.7868)" class="st0" width="10.17" height="26.33"/>
	<polygon class="st0" points="107.96,131.31 100.77,124.12 82.15,142.73 63.54,124.12 56.35,131.31 82.15,157.11 "/>
	<polygon class="st0" points="44.52,67.87 37.33,60.69 11.53,86.49 37.33,112.29 44.52,105.1 25.91,86.49 "/>
	<polygon class="st0" points="126.97,60.68 119.78,67.87 138.39,86.49 119.78,105.1 126.97,112.29 152.77,86.49 "/>
	<polygon class="st0" points="100.77,48.86 107.96,41.67 82.15,15.87 56.35,41.67 63.54,48.86 82.15,30.25 "/>
</svg>
